:SAMPLES-PER-SECOND 30
:FRAME-RANGE 1-2775
:FULLY-SPECIFIED
:DEGREES
87
root  -35.4151 39.5771 -25.4605 2.35293 85.7915 -25.9747
RightUpLeg  -35.0785 1.56203 -0.484193
RightLeg  -4.34573 -4.37698 1.3145
RightFoot  10.1935 -0.4135 2.51138
RightToes  -5.28216e-011 1.2921e-014 -6.02303e-014
Spine  21.4058 -0.279056 0.176636
Spine1  13.642 1.25058 -4.63117
HEad  46.2139 0.749717 -1.71364
LeftShoulder1  1.93821 -1.74363 -30.8987
LeftArm  26.6919 -5.54202 -37.2205
LeftForeArm  -7.41231 -23.8525 -5.46503
LeftHand  0.160777 -0.416563 -3.32976
RightShoulder  10.4169 14.2565 51.3325
RightArm  18.2002 4.89526 16.8609
RightForeArm  1.32365 14.9972 11.031
RightHand  0.339373 5.05926 3.63004
LeftUpLeg  -38.25 2.28991 4.44999
LeftLeg  -2.6479 0.137982 -1.72192
LeftFoot  12.4753 0.633363 -3.36624
LeftToes  -2.158e-010 -1.26819e-010 -1.05346e-011
88
root  -35.3903 39.6124 -25.4669 2.53433 85.7836 -24.9964
RightUpLeg  -34.1789 1.31229 -0.46637
RightLeg  -4.32327 -4.07707 1.4157
RightFoot  10.0513 -0.415454 2.51032
RightToes  -5.28216e-011 1.2921e-014 -6.02303e-014
Spine  21.1824 -0.246358 0.19422
Spine1  13.2593 1.26979 -4.60466
HEad  43.114 -0.112231 -1.85071
LeftShoulder1  1.96346 -1.76837 -31.2069
LeftArm  26.7982 -5.3866 -36.756
LeftForeArm  -7.71659 -23.7351 -5.45914
LeftHand  0.15891 -0.372914 -3.34254
RightShoulder  10.4484 14.2338 51.5494
RightArm  17.9402 4.78379 16.7458
RightForeArm  1.5848 14.775 11.1888
RightHand  0.33897 5.12914 3.59659
LeftUpLeg  -37.2493 2.29772 4.33756
LeftLeg  -2.81938 0.0385158 -1.69911
LeftFoot  12.4099 0.668358 -3.54019
LeftToes  -2.158e-010 -1.26819e-010 -1.05346e-011
89
root  -35.3601 39.653 -25.4766 2.27728 85.8501 -24.2807
RightUpLeg  -33.0873 1.12715 -0.440805
RightLeg  -4.27219 -3.96426 1.41917
RightFoot  9.90209 -0.423003 2.59385
RightToes  -5.28216e-011 1.2921e-014 -6.02303e-014
Spine  20.932 -0.232275 0.195258
Spine1  12.7841 1.2184 -4.4569
HEad  39.9773 -0.771721 -1.83615
LeftShoulder1  1.9827 -1.78725 -31.4394
LeftArm  27.1801 -5.28031 -36.4698
LeftForeArm  -8.19508 -23.469 -5.47138
LeftHand  0.157333 -0.376391 -3.31171
RightShoulder  10.4714 14.2117 51.7235
RightArm  17.2617 4.69288 16.6341
RightForeArm  2.332 14.286 11.5022
RightHand  0.342197 5.09647 3.6025
LeftUpLeg  -36.115 2.33526 4.18733
LeftLeg  -2.89411 -0.167076 -1.7168
LeftFoot  12.3174 0.636093 -3.39768
LeftToes  -2.158e-010 -1.26819e-010 -1.05346e-011
90
root  -35.3153 39.6982 -25.5002 2.22167 85.8506 -23.2138
RightUpLeg  -31.8727 0.925804 -0.421267
RightLeg  -4.09931 -3.7545 1.3893
RightFoot  9.64138 -0.430165 2.68078
RightToes  -5.28216e-011 1.2921e-014 -6.02303e-014
Spine  20.5288 -0.228788 0.276095
Spine1  12.2629 1.19711 -4.40901
HEad  36.9885 -1.25664 -1.81408
LeftShoulder1  2.00306 -1.82468 -31.5591
LeftArm  27.7324 -5.17175 -36.3633
LeftForeArm  -8.74145 -22.9968 -5.58284
LeftHand  0.155542 -0.307895 -3.15931
RightShoulder  10.4866 14.1864 51.8697
RightArm  16.6834 4.52337 16.5314
RightForeArm  3.24449 13.781 11.8105
RightHand  0.346637 5.0607 3.53862
LeftUpLeg  -34.8114 2.36877 4.0206
LeftLeg  -2.89975 -0.357361 -1.71149
LeftFoot  12.0988 0.622696 -3.35914
LeftToes  -2.158e-010 -1.26819e-010 -1.05346e-011
91
root  -35.2522 39.7529 -25.5306 2.35933 85.8093 -21.7236
RightUpLeg  -30.4018 0.693088 -0.405501
RightLeg  -3.89116 -3.39398 1.33498
RightFoot  9.33401 -0.434198 2.73186
RightToes  -5.28216e-011 1.2921e-014 -6.02303e-014
Spine  20.0883 -0.215216 0.344879
Spine1  11.7408 1.19239 -4.37703
HEad  34.054 -1.64623 -1.80184
LeftShoulder1  2.01677 -1.83788 -31.7237
LeftArm  28.2494 -5.10346 -36.1996
LeftForeArm  -9.14953 -22.5463 -5.78601
LeftHand  0.158324 -0.290529 -3.22834
RightShoulder  10.4712 14.1306 51.9559
RightArm  16.0738 4.35322 16.4596
RightForeArm  4.1361 13.2561 12.1235
RightHand  0.359272 5.12715 3.65122
LeftUpLeg  -33.2625 2.41474 3.81989
LeftLeg  -2.82701 -0.513561 -1.69544
LeftFoot  11.8379 0.581709 -3.19029
LeftToes  -2.158e-010 -1.26819e-010 -1.05346e-011
92
root  -35.1717 39.8102 -25.5668 2.70691 85.7176 -19.8822
RightUpLeg  -28.7475 0.45832 -0.399351
RightLeg  -3.69293 -3.05488 1.25064
RightFoot  8.95543 -0.458454 2.90461
RightToes  -5.28216e-011 1.2921e-014 -6.02303e-014
Spine  19.5383 -0.193244 0.380715
Spine1  11.1685 1.17754 -4.30666
HEad  31.4063 -1.87952 -1.91803
LeftShoulder1  2.02687 -1.83472 -31.9357
LeftArm  28.6894 -4.94447 -36.0261
LeftForeArm  -9.35347 -22.1116 -6.04776
LeftHand  0.159186 -0.284472 -3.25207
RightShoulder  10.3908 13.996 51.9545
RightArm  15.773 4.19823 16.5011
RightForeArm  4.86481 12.7881 12.4031
RightHand  0.342885 5.08161 3.48874
LeftUpLeg  -31.5634 2.53404 3.61133
LeftLeg  -2.66302 -0.677899 -1.72743
LeftFoot  11.4436 0.575885 -3.20592
LeftToes  -2.158e-010 -1.26819e-010 -1.05346e-011
93
root  -35.0714 39.8727 -25.6112 3.17801 85.6299 -17.7961
RightUpLeg  -26.9472 0.193899 -0.426113
RightLeg  -3.45537 -2.67653 1.13801
RightFoot  8.52185 -0.479253 3.0708
RightToes  -5.28216e-011 1.2921e-014 -6.02303e-014
Spine  18.886 -0.185118 0.341706
Spine1  10.5569 1.10697 -4.14624
HEad  29.0773 -1.9877 -1.7616
LeftShoulder1  2.03569 -1.8255 -32.1672
LeftArm  28.8478 -4.59348 -35.8742
LeftForeArm  -9.33679 -21.7439 -6.30344
LeftHand  0.159121 -0.318651 -3.21717
RightShoulder  10.35 13.9407 51.9158
RightArm  15.4884 3.93757 16.4991
RightForeArm  5.46931 12.4136 12.6185
RightHand  0.341995 5.06599 3.48508
LeftUpLeg  -29.7054 2.69087 3.38027
LeftLeg  -2.46838 -0.87965 -1.79339
LeftFoot  10.9313 0.611564 -3.4466
LeftToes  -2.158e-010 -1.26819e-010 -1.05346e-011
